<svg xmlns="http://www.w3.org/2000/svg" width="14" height="16" viewBox="0 0 14 16">
    <path fill="#FFF" fill-rule="nonzero" d="M13.688 6.089c-.145.327-.584.807-.877 1.123l-6.884 7.615c-.263.291-.747.676-1.126.813l-.062.022c-.426.158-.907.338-1.487.338-.754 0-1.498-.307-2.284-.943-.038-.036-.917-.857-.966-2.142-.035-.897.346-1.785 1.133-2.638l4.88-5.063c.49-.541 1.03-.815 1.6-.815.934 0 1.604.738 1.621.761.726.694.78 1.635.156 2.646-.18.29-.518.636-.789.915l-.126.131c-.926.959-2.854 3.069-2.872 3.088a.9.9 0 0 1-.59.285c-.202 0-.436-.144-.592-.365-.127-.182-.173-.37-.129-.535.046-.176.154-.344.325-.51l2.61-2.77c.103-.108.234-.236.374-.369.211-.203.43-.413.566-.583.481-.588.212-.861.113-.963-.003-.003-.253-.3-.595-.3-.17 0-.34.074-.506.22-.154.136-.34.364-.52.586-.13.158-.254.312-.362.425l-3.908 4.104c-.046.047-.098.101-.152.153-.239.243-.565.575-.669.836-.137.345-.103.712.102 1.094.155.288.573.669.896.814.872.396 1.702.285 2.331-.326l7.408-8.134c.004-.004.363-.404.346-1.057-.019-.615-.359-1.247-1.022-1.887-.012-.011-1.053-1.123-2.267-1.123-.526 0-1.018.214-1.449.633L2.331 7.964c-.01.013-.269.301-.63.333l-.039.001c-.184 0-.367-.116-.502-.319-.159-.237-.215-.534-.145-.754.071-.222.201-.416.376-.57L7.165.84C7.445.56 8.266.089 8.75.041 9.021.014 9.26 0 9.475 0c1.17 0 1.91.377 3.156 1.607.021.021 2.146 2.028 1.057 4.482z"/>
</svg>
