<?xml version="1.0" encoding="UTF-8"?>
<svg width="12px" height="12px" viewBox="0 0 12 12" version="1.1" xmlns="http://www.w3.org/2000/svg" xmlns:xlink="http://www.w3.org/1999/xlink">
    <!-- Generator: Sketch 51.2 (57519) - http://www.bohemiancoding.com/sketch -->
    <title>Group 7</title>
    <desc>Created with Sketch.</desc>
    <defs></defs>
    <g id="Page-1" stroke="none" stroke-width="1" fill="none" fill-rule="evenodd">
        <g id="Artboard-Copy-2" transform="translate(-1410.000000, -18.000000)">
            <g id="Group-12" transform="translate(1400.000000, 8.000000)">
                <g id="Group-7" transform="translate(16.000000, 16.000000) scale(-1, 1) translate(-16.000000, -16.000000) translate(8.000000, 8.000000)">
                    <rect id="Rectangle-3" x="0" y="0" width="16" height="16"></rect>
                    <g id="Group-6" transform="translate(2.000000, 2.000000)" fill="#FFFFFF" fill-rule="nonzero">
                        <path d="M5.99978645,12.0002254 C5.74378645,12.0002254 5.48778645,11.9022254 5.29278645,11.7072254 L0.292786454,6.70722542 C-0.0975954846,6.31672556 -0.0975954846,5.68372527 0.292786454,5.29322542 L5.29278645,0.293225416 C5.54537322,0.0404600044 5.91362177,-0.0583514275 6.25881642,0.0340124305 C6.60401107,0.126376289 6.87370855,0.395883169 6.96631643,0.741012437 C7.0589243,1.0861417 6.96037323,1.45446001 6.70778645,1.70722542 L2.41478645,6.00022542 L6.70578645,10.2922254 C6.9933135,10.5776375 7.07999773,11.0084397 6.92523681,11.3828472 C6.77047589,11.7572546 6.40491738,12.0011228 5.99978645,12.0002254 Z M10.9997865,12.0002254 C10.7437865,12.0002254 10.4877865,11.9022254 10.2927865,11.7072254 L5.29278645,6.70722542 C4.90240452,6.31672556 4.90240452,5.68372527 5.29278645,5.29322542 L10.2927865,0.293225416 C10.5453732,0.0404600044 10.9136218,-0.0583514275 11.2588164,0.0340124305 C11.6040111,0.126376289 11.8737086,0.395883169 11.9663164,0.741012437 C12.0589243,1.0861417 11.9603732,1.45446001 11.7077865,1.70722542 L7.41478645,6.00022542 L11.7057865,10.2922254 C11.9933135,10.5776375 12.0799977,11.0084397 11.9252368,11.3828472 C11.7704759,11.7572546 11.4049174,12.0011228 10.9997865,12.0002254 Z" id="Combined-Shape"></path>
                    </g>
                </g>
            </g>
        </g>
    </g>
</svg>